<mxfile host="65bd71144e">
    <diagram id="hwipYdZ2RwcDQQUPtSvt" name="Page-1">
        <mxGraphModel dx="1213" dy="862" grid="1" gridSize="10" guides="1" tooltips="1" connect="1" arrows="1" fold="1" page="1" pageScale="1" pageWidth="850" pageHeight="1100" math="0" shadow="0">
            <root>
                <mxCell id="0"/>
                <mxCell id="1" parent="0"/>
                <mxCell id="2" value="database.js" style="whiteSpace=wrap;html=1;aspect=fixed;fillColor=#0000ff;gradientColor=none;fillStyle=auto;strokeColor=#FFFFFF;" vertex="1" parent="1">
                    <mxGeometry x="551" y="401" width="80" height="80" as="geometry"/>
                </mxCell>
                <mxCell id="3" value="&lt;font style=&quot;font-size: 11px;&quot;&gt;Assignments.js&lt;/font&gt;" style="whiteSpace=wrap;html=1;aspect=fixed;fillColor=#0000ff;gradientColor=none;fillStyle=auto;strokeColor=#FFFFFF;" vertex="1" parent="1">
                    <mxGeometry x="391" y="221" width="80" height="80" as="geometry"/>
                </mxCell>
                <mxCell id="4" value="CityLists.js" style="whiteSpace=wrap;html=1;aspect=fixed;fillColor=#0000ff;gradientColor=none;fillStyle=auto;strokeColor=#FFFFFF;" vertex="1" parent="1">
                    <mxGeometry x="391" y="341" width="80" height="80" as="geometry"/>
                </mxCell>
                <mxCell id="5" value="&lt;font style=&quot;font-size: 9px;&quot;&gt;RegisteredPets.js&lt;/font&gt;" style="whiteSpace=wrap;html=1;aspect=fixed;fillColor=#0000ff;gradientColor=none;fillStyle=auto;strokeColor=#FFFFFF;" vertex="1" parent="1">
                    <mxGeometry x="391" y="461" width="80" height="80" as="geometry"/>
                </mxCell>
                <mxCell id="6" value="&lt;font style=&quot;font-size: 11px;&quot;&gt;Walkers.js&lt;br&gt;&lt;/font&gt;" style="whiteSpace=wrap;html=1;aspect=fixed;fillColor=#0000ff;gradientColor=none;fillStyle=auto;strokeColor=#FFFFFF;" vertex="1" parent="1">
                    <mxGeometry x="391" y="581" width="80" height="80" as="geometry"/>
                </mxCell>
                <mxCell id="7" value="&lt;span style=&quot;font-size: 11px;&quot;&gt;main.js&lt;/span&gt;" style="whiteSpace=wrap;html=1;aspect=fixed;fillColor=#0000ff;gradientColor=none;fillStyle=auto;strokeColor=#FFFFFF;" vertex="1" parent="1">
                    <mxGeometry x="231" y="401" width="80" height="80" as="geometry"/>
                </mxCell>
                <mxCell id="13" value="" style="endArrow=classic;html=1;fontSize=9;entryX=0;entryY=0.5;entryDx=0;entryDy=0;strokeColor=#FF6700;" edge="1" parent="1" target="4">
                    <mxGeometry width="50" height="50" relative="1" as="geometry">
                        <mxPoint x="311" y="431" as="sourcePoint"/>
                        <mxPoint x="441" y="281" as="targetPoint"/>
                        <Array as="points">
                            <mxPoint x="341" y="431"/>
                            <mxPoint x="341" y="381"/>
                        </Array>
                    </mxGeometry>
                </mxCell>
                <mxCell id="15" value="" style="endArrow=classic;html=1;fontSize=9;strokeColor=#FF6700;entryX=0;entryY=0.5;entryDx=0;entryDy=0;exitX=1.025;exitY=0.625;exitDx=0;exitDy=0;exitPerimeter=0;" edge="1" parent="1" source="7" target="5">
                    <mxGeometry width="50" height="50" relative="1" as="geometry">
                        <mxPoint x="321" y="461" as="sourcePoint"/>
                        <mxPoint x="431" y="521" as="targetPoint"/>
                        <Array as="points">
                            <mxPoint x="341" y="451"/>
                            <mxPoint x="341" y="501"/>
                        </Array>
                    </mxGeometry>
                </mxCell>
                <mxCell id="16" value="" style="endArrow=classic;html=1;fontSize=9;strokeColor=#FF6700;entryX=0;entryY=0.5;entryDx=0;entryDy=0;" edge="1" parent="1" target="6">
                    <mxGeometry width="50" height="50" relative="1" as="geometry">
                        <mxPoint x="311" y="471" as="sourcePoint"/>
                        <mxPoint x="431" y="521" as="targetPoint"/>
                        <Array as="points">
                            <mxPoint x="333" y="471"/>
                            <mxPoint x="333" y="621"/>
                        </Array>
                    </mxGeometry>
                </mxCell>
                <mxCell id="17" value="" style="endArrow=classic;html=1;fontSize=9;entryX=0;entryY=0.5;entryDx=0;entryDy=0;strokeColor=#FF6700;exitX=1;exitY=0.125;exitDx=0;exitDy=0;exitPerimeter=0;" edge="1" parent="1" source="7" target="3">
                    <mxGeometry width="50" height="50" relative="1" as="geometry">
                        <mxPoint x="321" y="411" as="sourcePoint"/>
                        <mxPoint x="431" y="351" as="targetPoint"/>
                        <Array as="points">
                            <mxPoint x="331" y="411"/>
                            <mxPoint x="331" y="261"/>
                        </Array>
                    </mxGeometry>
                </mxCell>
                <mxCell id="20" value="" style="endArrow=classic;html=1;strokeColor=#FF6700;fontSize=9;exitX=1;exitY=0.5;exitDx=0;exitDy=0;entryX=0;entryY=0.125;entryDx=0;entryDy=0;entryPerimeter=0;" edge="1" parent="1" source="3" target="2">
                    <mxGeometry width="50" height="50" relative="1" as="geometry">
                        <mxPoint x="496" y="261" as="sourcePoint"/>
                        <mxPoint x="546" y="341" as="targetPoint"/>
                        <Array as="points">
                            <mxPoint x="526" y="261"/>
                            <mxPoint x="526" y="411"/>
                        </Array>
                    </mxGeometry>
                </mxCell>
                <mxCell id="21" value="" style="endArrow=classic;html=1;strokeColor=#FF6700;fontSize=9;exitX=1;exitY=0.5;exitDx=0;exitDy=0;entryX=0;entryY=0.375;entryDx=0;entryDy=0;entryPerimeter=0;" edge="1" parent="1" target="2">
                    <mxGeometry width="50" height="50" relative="1" as="geometry">
                        <mxPoint x="471" y="381" as="sourcePoint"/>
                        <mxPoint x="551" y="531" as="targetPoint"/>
                        <Array as="points">
                            <mxPoint x="511" y="381"/>
                            <mxPoint x="511" y="431"/>
                        </Array>
                    </mxGeometry>
                </mxCell>
                <mxCell id="22" value="" style="endArrow=classic;html=1;strokeColor=#FF6700;fontSize=9;exitX=1;exitY=0.5;exitDx=0;exitDy=0;entryX=0;entryY=0.625;entryDx=0;entryDy=0;entryPerimeter=0;" edge="1" parent="1" target="2">
                    <mxGeometry width="50" height="50" relative="1" as="geometry">
                        <mxPoint x="471" y="501" as="sourcePoint"/>
                        <mxPoint x="551" y="551" as="targetPoint"/>
                        <Array as="points">
                            <mxPoint x="511" y="501"/>
                            <mxPoint x="511" y="451"/>
                        </Array>
                    </mxGeometry>
                </mxCell>
                <mxCell id="23" value="" style="endArrow=classic;html=1;strokeColor=#FF6700;fontSize=9;exitX=1;exitY=0.5;exitDx=0;exitDy=0;entryX=0;entryY=0.875;entryDx=0;entryDy=0;entryPerimeter=0;" edge="1" parent="1" target="2">
                    <mxGeometry width="50" height="50" relative="1" as="geometry">
                        <mxPoint x="471" y="621" as="sourcePoint"/>
                        <mxPoint x="551" y="571" as="targetPoint"/>
                        <Array as="points">
                            <mxPoint x="521" y="621"/>
                            <mxPoint x="521" y="471"/>
                        </Array>
                    </mxGeometry>
                </mxCell>
            </root>
        </mxGraphModel>
    </diagram>
</mxfile>